<?xml version="1.0" encoding="UTF-8" standalone="no"?>
<svg
   xmlns:dc="http://purl.org/dc/elements/1.1/"
   xmlns:cc="http://creativecommons.org/ns#"
   xmlns:rdf="http://www.w3.org/1999/02/22-rdf-syntax-ns#"
   xmlns:svg="http://www.w3.org/2000/svg"
   xmlns="http://www.w3.org/2000/svg"
   width="100pt"
   height="100pt"
   viewBox="0 0 35.277778 35.277778"
   version="1.1"
   id="svg8">
  <defs
     id="defs2" />
  <metadata
     id="metadata5">
    <rdf:RDF>
      <cc:Work
         rdf:about="">
        <dc:format>image/svg+xml</dc:format>
        <dc:type
           rdf:resource="http://purl.org/dc/dcmitype/StillImage" />
        <dc:title></dc:title>
      </cc:Work>
    </rdf:RDF>
  </metadata>
  <g
     id="layer1"
     transform="matrix(4.6223348,0,0,4.6223348,-1.9289943,-1335.6266)">
    <g
       id="g4597"
       transform="translate(-0.19843745,-0.25631667)">
      <path
         id="rect4578"
         d="m 0.96169839,290.26966 c -0.12955889,0 -0.23409423,0.10402 -0.23409423,0.23358 v 0.74207 0.60926 3.49178 c 0,0.23819 0.19175677,0.42995 0.42994794,0.42995 h 6.5484374 c 0.2381911,0 0.4299479,-0.19176 0.4299479,-0.42995 v -4.10104 c 0,-0.23819 -0.1917568,-0.42995 -0.4299479,-0.42995 H 3.6710937 v -0.31212 c 0,-0.12956 -0.1045353,-0.23358 -0.2340943,-0.23358 z"
         style="fill:#f6c358;fill-opacity:1;stroke-width:0.05;stroke-miterlimit:4;stroke-dasharray:none" />
      <rect
         ry="0"
         y="291.50992"
         x="1.4552083"
         height="3.141927"
         width="5.953125"
         id="rect4585"
         style="fill:#ffffff;stroke-width:0.05;stroke-miterlimit:4;stroke-dasharray:none" />
      <path
         id="rect4580"
         d="m 0.72760417,292.53515 v 2.8112 c 0,0.23819 0.1917567,0.42995 0.42994793,0.42995 h 6.5484374 c 0.2381911,0 0.4299479,-0.19176 0.4299479,-0.42995 v -2.8112 z"
         style="fill:#fcd462;fill-opacity:1;stroke-width:0.05;stroke-miterlimit:4;stroke-dasharray:none" />
    </g>
  </g>
</svg>
